<svg width="32" height="32" xmlns="http://www.w3.org/2000/svg" xmlns:undefined="http://www.inkscape.org/namespaces/inkscape" version="1.1">

 <g>
  <title>Layer 1</title>
  <g id="layer1"  >
   <path stroke-width="1.37294" fill="#ffffff" aria-label="B" id="text4" d="m10.17081,18.42623q0,5.57553 -5.34639,5.57553q-0.92802,0 -2.89082,-0.08405q0.10676,-4.23068 0.10676,-9.54003q0,-5.09923 -0.10676,-8.69951l1.33043,0q0.37779,0 1.26474,-0.04201q0.89517,-0.04202 1.39614,-0.04202q3.63817,0 3.63817,4.03455q0,3.10996 -1.86426,4.1186l0,0.21014q0.99373,0.26616 1.73286,1.33084q0.73913,1.05066 0.73913,3.13798l0,-0.00002zm-2.2174,0.1541q0,-2.78776 -2.86618,-2.78776q-0.56667,0 -0.9773,0.07004q0,2.92785 0.07391,5.39341q0.27923,0.11207 0.83768,0.11207q1.51933,0 2.22561,-0.61639q0.70628,-0.6304 0.70628,-2.17137zm-0.59951,-7.84496q0,-2.50759 -1.83962,-2.50759q-0.8459,0 -1.5029,0.21014q0.09034,1.41489 0.09034,4.86107q0.31208,0.02799 0.65701,0.02799q2.59517,0 2.59517,-2.59164l0,0.00003z"/>
   <path stroke-width="1.37294" fill="#ffffff" aria-label="U" id="text3" d="m20.86358,5.67817q-0.07391,4.70698 -0.07391,9.41396q0,9.30188 -4.46764,9.30188q-2.20918,0 -3.32609,-2.05931q-1.11691,-2.0593 -1.11691,-7.39667q0,-4.70698 -0.07391,-9.25986l2.32415,0q-0.10676,4.735 -0.10676,9.13378q0,3.85243 0.57488,5.28134q0.57488,1.4289 1.77392,1.4289q1.25652,0 1.81498,-1.41489q0.55845,-1.42891 0.55845,-5.32337q0,-4.2727 -0.10676,-9.10576l2.2256,0z"/>
   <path stroke-width="1.37294" fill="#ffffff" aria-label="S" id="text2" d="m30.02881,18.94456q0,5.47747 -4.61547,5.47747q-1.5686,0 -2.91546,-0.64441l0.40242,-3.12398q1.33043,0.7845 2.51304,0.7845q1.31402,0 1.8889,-0.43428q0.57488,-0.43427 0.57488,-1.45692q0,-1.06467 -0.54203,-1.79313q-0.46812,-0.64441 -1.89711,-1.68106q-1.29758,-0.95261 -1.92995,-2.07332q-0.79662,-1.41489 -0.79662,-3.4882q0,-2.40952 1.04299,-3.76838q1.05121,-1.35886 3.01402,-1.35886q1.60966,0 2.70194,0.46229l-0.30387,3.10997q-1.1087,-0.68644 -2.39807,-0.68644q-1.93817,0 -1.93817,1.76512q0,0.93859 0.45169,1.52696q0.39421,0.50432 1.71643,1.4149q1.40435,0.96661 2.10242,2.12934q0.92802,1.55499 0.92802,3.83843z"/>
  </g>
 </g>
</svg>