<?xml version="1.0" encoding="UTF-8" standalone="no"?>
<!-- Generator: visioncortex VTracer 0.6.4 -->

<svg
   version="1.1"
   width="56"
   height="138"
   id="svg3"
   xmlns="http://www.w3.org/2000/svg"
   xmlns:svg="http://www.w3.org/2000/svg">
  <defs
     id="defs3" />
  <path
     d="m 22.215613,4.7360595 h 15 v 2 h -11 l 11,18.9999995 c -4.226204,7.626597 -6.462427,12.233171 -12,23 4.085837,6.954581 7.959808,13.725098 12,21 L 25.336531,90.796518 c 3.742979,7.178307 7.532038,14.282762 11.758164,21.758162 -5.45,9.41 -6.013097,10.66015 -11.26384,20.2929 l 11.384758,-0.11152 v 2 h -15 c 3.880117,-7.14608 8.17468,-15.29902 11.839719,-22.1988 -3.628357,-7.00633 -3.742569,-6.89579 -11.718801,-22.070839 3.860521,-7.16075 7.803962,-14.02205 11.725507,-20.879082 -3.930652,-6.764493 -3.870193,-6.704034 -11.967343,-21.274493 4.120411,-7.881771 7.908738,-14.918758 11.846425,-22.571932 0,0 -3.416751,-5.646002 -11.725507,-20.0048545 z"
     fill="#eeeded"
     id="path3" />
</svg>
