<?xml version="1.0"?>
<svg width="32" height="32" xmlns="http://www.w3.org/2000/svg" xmlns:svg="http://www.w3.org/2000/svg">
 <g class="layer">
  <title>Layer 1</title>
  <g id="svg_2" transform="translate(-1.32 -0.64) translate(6.92521 8.5713) matrix(4.39751 0 0 4.39751 -62.5951 -64.0728)">
   <g id="svg_1" transform="translate(-0.04 0.04)">
    <path d="m160.63,28.37l-19.3,0l9.65,16.72l9.65,-16.72z" display="inline" fill="rgb(255, 255, 255)" id="path-19" stroke-width="0.07" transform="matrix(0 -1 1 0 -0.000003 0.000006) matrix(0.0679526 0 0 0.0679526 -25.456 15.9122)"/>
    <path d="m16.62,17.82l0,-2.03c0,-0.33 0.21,-0.6 0.6,-0.6l0.68,0" display="inline" fill="none" id="path-20" stroke="rgb(255, 255, 255)" stroke-linejoin="round" stroke-miterlimit="4" stroke-width="0.35"/>
    <path d="m16.62,17.81l0,-2.03c0,-0.33 -0.21,-0.6 -0.6,-0.6l-0.68,0" display="inline" fill="none" id="path-22" stroke="rgb(255, 255, 255)" stroke-linejoin="round" stroke-miterlimit="4" stroke-width="0.35"/>
    <path d="m160.54,-7.24l-19.3,0l9.65,-16.71l9.65,16.71z" display="inline" fill="rgb(255, 255, 255)" id="path-21" stroke-width="0.07" transform="matrix(0 -1 1 0 -0.000007 0.000006) matrix(0.0679526 0 0 0.0679526 -25.456 15.9122)"/>
   </g>
  </g>
 </g>
</svg>