<?xml version="1.0"?>
<svg width="32" height="32" xmlns="http://www.w3.org/2000/svg" xmlns:svg="http://www.w3.org/2000/svg">
 <g class="layer">
  <title>Layer 1</title>
  <g id="svg_1" transform="translate(10.5255 5.25295) scale(1.03335 1.03335) translate(-10.5255 -5.25295) translate(10.5202 5.24767) matrix(1.55329 0 0 1.55329 -21.1252 -16.1338)">
   <path d="m4.05,11.44l-19.3,0l9.65,16.71l9.65,-16.71z" display="inline" fill="rgb(255, 255, 255)" id="path4742" stroke-width="1.25" transform="matrix(-1 0 0 -1 -0.000009 -0.000003) matrix(0.203802 0 0 0.203802 -14.4549 -16.1531)"/>
   <path d="m15.61,13.72l0.03,9.82" display="inline" fill="none" id="path4744" stroke="rgb(255, 255, 255)" stroke-miterlimit="4" stroke-width="1.25"/>
   <path d="m9.04,24.44l-19.3,0l9.65,16.72l9.65,-16.72z" display="inline" fill="rgb(255, 255, 255)" id="path4746" stroke-width="1.25" transform="matrix(0 -1 1 0 0.000007 -0.000001) matrix(0.203802 0 0 0.203802 -16.1531 14.4548)"/>
   <path d="m15.61,24.27l0,-6.08c0,-0.98 0.62,-1.8 1.8,-1.8l2.04,0" display="inline" fill="none" id="path4748" stroke="rgb(255, 255, 255)" stroke-linejoin="round" stroke-miterlimit="4" stroke-width="1.25"/>
  </g>
 </g>
</svg>