<?xml version="1.0" encoding="UTF-8" standalone="no"?>
<!-- Generator: visioncortex VTracer 0.6.4 -->

<svg
   version="1.1"
   width="86"
   height="108"
   id="svg11"
   xmlns="http://www.w3.org/2000/svg"
   xmlns:svg="http://www.w3.org/2000/svg">
  <defs
     id="defs11" />
  <path
     d="M 0,0 H 86 V 108 H 0 Z"
     fill="#007bc5"
     id="path1" />
  <path
     d="M 12,12 H 74 V 75 H 12 Z"
     fill="#f2f7f9"
     id="path2" />
  <path
     d="m 72,49 h 1 V 75 H 13 V 51 h 9 l 1,2 h 4 l 2,-3 h 26 l 1,3 h 5 l 1,-2 h 10 z"
     fill="#fbfcfc"
     id="path3" />
  <path
     d="M 17,35 68.328694,34.98901 68.730839,35.995622 63,36 v 10 l 6,-1 -1.158318,-9.00563 0.885797,6.27e-4 L 71,41 70.90537,50.709735 62,50.898998 l -0.600224,1.025848 -1.05164,0.859815 -1.954899,0.150122 -1.76347,-0.216414 -1.164982,-0.724888 -0.606732,-1.141798 -27.184824,-0.05199 -0.719123,1.15982 -1.054098,0.84943 -1.57971,0.137224 -1.725607,-0.100847 -0.95137,-0.758095 -0.596005,-1.181856 -4.911739,-0.0064 L 16,37 16.268614,35.711471 Z"
     fill="#1c1d15"
     id="path4" />
  <path
     d="M 0,0 H 86 V 108 H 0 Z M 5.2244235,0.01598909 0.02246092,0.04687499 V 108.15683 l 4.70132548,-0.052 76.6905336,0.13811 4.657282,-0.0332 -0.10358,-104.8299163 0.03835,-3.34654126 z"
     fill="#2f94cf"
     id="path5" />
  <path
     d="m 44,36 h 9 v 11 h -9 z"
     fill="#dce4e9"
     id="path6" />
  <path
     d="m 34,36 h 9 v 6 h -9 z"
     fill="#d5e0e6"
     id="path7" />
  <path
     d="m 63,36 4.84833,-0.0015 2.097984,5.089738 v 4.834395 L 63,46 Z"
     fill="#d3dee5"
     id="path8" />
  <path
     d="m 54,36 h 8 v 6 h -8 z"
     fill="#dee8ee"
     id="path9" />
  <path
     d="m 25,36 h 8 v 6 h -8 z"
     fill="#e7ecf0"
     id="path10" />
  <path
     d="m 18,36 h 6 v 6 h -7 v -5 z"
     fill="#d0dbe2"
     id="path11" />
</svg>
